# xmcd
#
# Track frame offsets:
#	150
#	14802
#	29333
#	45223
#	61136
#	76008
#	91357
#	106739
#	122836
#	137984
#	153102
#	167800
#	183466
#	198644
#	213743
#	228406
#	244142
#	259340
#
# Disc length: 3654 seconds
#
# Revision: 0
# Processed by: cddbd v1.5.2PL0 Copyright (c) Steve Scherf et al.
# Submitted via: EasyCDDAExtractor 16.0.6.1
#
DISCID=f50e4412
DTITLE=Συλλογικός δίσκος - Τετράς η ξακουστή του Πειραιώς
DYEAR=1900
DGENRE=Ρεμπέτικη
TTITLE0=Μπάτης Γιώργος - Ταξίμι αθηναίϊκο και ζεϊμπέκικο [Γιώργου Μπάτη]
TTITLE1=Βαμβακάρης Μάρκος - Ώρες με θρέφει ο λουλάς [Μάρκου Βαμβακάρη]
TTITLE2=Παγιουμτζής Στράτος   - Ζεϊμπεκάνο σπανιόλο [Γιώργου Μπάτη]
TTITLE3=Δελλιάς Ανέστης - Σούρα και μαστούρα [Ανέστη Δελλιά]
TTITLE4=Παγιουμτζής Στράτος - Μάγκες καραβοτσακισμένοι [Γιώργου Μπάτη]
TTITLE5=Βαμβακάρης Μάρκος - Χθες βράδυ στο σκοτάδι [Μάρκου Βαμβακάρη]
TTITLE6=Μπάτης Γιώργος - Φασουλάς [Γιώργου Μπάτη]
TTITLE7=Δελλιάς Ανέστης - Κουτσαβάκι [Ανέστη Δελλιά]
TTITLE8=Βαμβακάρης Μάρκος - Όταν πίνω τουμπεκάκι [Μάρκου Βαμβακάρη]
TTITLE9=Μπάτης Γιώργος - Καμηλιέρικο [Γιώργου Μπάτη]
TTITLE10=Παγιουμτζής Στράτος - Οι σφουγγαράδες [Γιώργου Μπάτη]
TTITLE11=Μπάτης Γιώργος - Φωνογραφητζήδες [Γιώργου Μπάτη]
TTITLE12=Βαμβακάρης Μάρκος - Ήμουνα κάποτε κι εγώ [Μάρκου Βαμβακάρη]
TTITLE13=Μπάτης Γιώργος - Βάρκα μου μπογιατισμένη [Γιώργου Μπάτη]
TTITLE14=Μπάτης Γιώργος - Γυφτοπούλα [Γιώργου Μπάτη]
TTITLE15=Δελλιάς Ανέστης - Αθηναίϊσα [Ανέστη Δελλιά]
TTITLE16=Βαμβακάρης Μάρκος - Αλάνα Πειραιώτισσα [Μάρκου Βαμβακάρη]
TTITLE17=Παγιουμτζής Στράτος - Μανές ραστ νέβα-Μόνον εγώ γεννήθηκα [Στράτου Πα
TTITLE17=γιουμτζή]
EXTD=
EXTT0=
EXTT1=
EXTT2=
EXTT3=
EXTT4=
EXTT5=
EXTT6=
EXTT7=
EXTT8=
EXTT9=
EXTT10=
EXTT11=
EXTT12=
EXTT13=
EXTT14=
EXTT15=
EXTT16=
EXTT17=
PLAYORDER=
